<?xml version="1.0" encoding="UTF-8"?>
<svg viewBox="0 0 530.43 277.12" xmlns="http://www.w3.org/2000/svg">
 <polygon points="74.975 35.752 77.104 32.287 371.93 213.7 369.79 217.18" fill="#5f6062"/>
 <g fill="#5f6062">
  <path d="m447.96 273.11c6.382 3.749 13.662 3.209 16.283-1.239 2.604-4.448-0.449-11.08-6.823-14.838l-71.649-42.185c-6.366-3.741-13.653-3.186-16.267 1.247-2.617 4.448 0.43298 11.088 6.814 14.837l71.642 42.178z"/>
  <path d="m456.53 277.12c-3.019 0-6.287-0.88998-9.353-2.685l0.774-1.326 0.778-1.327c2.617 1.541 5.397 2.272 7.8 2.272 3.003-0.016998 5.286-1.112 6.374-2.955 0.47998-0.83398 0.715-1.756 0.715-2.78 0.031982-3.193-2.533-7.363-6.985-9.96l-71.653-42.193c-2.613-1.533-5.386-2.271-7.772-2.271-3.03 0.007996-5.31 1.104-6.39 2.986-0.49298 0.82599-0.73099 1.747-0.73099 2.765-0.035004 3.177 2.515 7.339 7.002 9.96l71.642 42.177-0.778 1.327-0.782 1.326-71.642-42.177c-5.19-3.082-8.479-7.903-8.511-12.613 0-1.51 0.36499-3.003 1.147-4.329 1.812-3.082 5.31-4.512 9.043-4.496 3.011 0 6.283 0.905 9.337 2.701l71.649 42.185c5.167 3.058 8.464 7.896 8.495 12.613 0.007996 1.501-0.35001 2.994-1.132 4.329-1.808 3.026-5.263 4.472-8.96 4.472-0.02301-0.001007-0.042023-0.001007-0.067017-0.001007z"/>
 </g>
 <path d="m369.5 216.1s2.104-0.676 7.609 4.916c5.5 5.576 75.981 47.785 75.981 47.785s5.013 1.287 6.597 0.23001c3.355-2.224 3.952-5.759 3.952-5.759s4.515 10.795-4.619 12.113c-9.139 1.326-83.663-44.838-83.663-44.838s-3.642-2.646-5.246-5.425c-1.612-2.771-0.61099-9.022-0.61099-9.022z" fill="#5f6062"/>
 <polygon points="163 212.12 459.39 33.319 461.49 36.802 165.1 215.6" fill="#5f6062"/>
 <path d="m411.16 64.13c-4.464-7.552-6.001-12.786-6.009-16.656-0.059998-5.82 3.797-7.933 4.944-8.352l36.855-22.739 0.012 0.01 2.125 3.457-37.352 23.042-0.294 0.076c0.007996 0.026001 0 0-0.17902 0.087002-0.199 0.103-0.47998 0.274-0.77399 0.566-0.55701 0.591-1.243 1.571-1.268 3.852-0.011993 2.746 1.176 7.407 5.438 14.582 4.516 7.508 10.206 9.928 16.708 9.988 8.352 0.034004 17.936-4.583 25.298-9.319 7.371-4.73 12.494-9.422 12.507-9.432l2.752 2.995c-0.199 0.051003-21.077 19.653-40.557 19.824-0.062988 0-0.13098 0.001999-0.19498 0.001999-7.544-9.92e-4 -14.999-3.417-20.011-11.983z" fill="#5f6062"/>
 <g fill="#5f6062">
  <path d="m86.44 270.87c-6.41 3.701-13.686 3.082-16.267-1.382-2.565-4.473 0.541-11.081 6.942-14.774l72.015-41.558c6.402-3.693 13.694-3.065 16.263 1.391 2.577 4.479-0.528 11.088-6.938 14.781l-72.015 41.542z"/>
  <path d="m68.835 270.25c-0.75-1.312-1.116-2.78-1.104-4.258 0.031998-4.742 3.368-9.579 8.614-12.613l72.011-41.55c3.022-1.755 6.243-2.629 9.229-2.629 3.777-0.015991 7.315 1.445 9.134 4.575 0.759 1.318 1.112 2.788 1.104 4.266-0.039993 4.733-3.376 9.555-8.606 12.613l-72.011 41.541-0.767-1.326 0.759 1.326c-3.03 1.748-6.263 2.613-9.238 2.613h-0.067001c-3.756 9.77e-4 -7.267-1.46-9.058-4.558zm81.061-55.768l-72.022 41.558c-4.523 2.573-7.117 6.751-7.085 9.952 0.012001 0.99301 0.238 1.906 0.715 2.725 1.072 1.882 3.388 3.01 6.458 3.026 2.379 0 5.107-0.707 7.708-2.2l-4e-3 -8e-3 72.011-41.534c4.52-2.598 7.121-6.775 7.077-9.96 0-1.009-0.23-1.907-0.69499-2.725-1.088-1.906-3.412-3.034-6.474-3.042-2.374-1.5e-5 -5.103 0.71498-7.689 2.208z"/>
 </g>
 <path d="m165.61 214.03s-2.113-0.675-7.645 4.877-76.229 47.396-76.229 47.396-5.024 1.264-6.589 0.199c-3.332-2.248-3.932-5.775-3.932-5.775s-4.575 10.771 4.556 12.137c9.126 1.375 83.897-44.408 83.897-44.408s3.658-2.629 5.282-5.401c1.629-2.774 0.65999-9.025 0.65999-9.025z" fill="#5f6062"/>
 <polygon points="146.37 169.6 487.99 113.72 488.65 117.73 147.03 173.62" fill="#5f6062"/>
 <g fill="#5f6062">
  <path d="m53.478 195.7c-7.319 1.049-13.853-2.232-14.587-7.331-0.731-5.107 4.611-10.096 11.942-11.137l82.289-11.818c7.315-1.049 13.853 2.224 14.591 7.323 0.71901 5.107-4.619 10.095-11.938 11.136l-82.297 11.827z"/>
  <path d="m37.365 188.6c-0.060001-0.381-0.088001-0.778-0.088001-1.175 0.111-5.941 5.978-10.644 13.337-11.708l82.276-11.819c0.99699-0.143 1.974-0.22301 2.936-0.22301 6.576 0 12.494 3.249 13.403 8.873 0.052002 0.373 0.074997 0.746 0.074997 1.119-0.11101 5.941-5.977 10.651-13.312 11.732l-82.301 11.818c-1.001 0.15099-1.978 0.20698-2.939 0.20698-6.588 0.001022-12.505-3.256-13.387-8.824zm95.967-21.668l-82.293 11.827c-6.418 0.87399-10.795 5.083-10.691 8.666 0 0.23801 0.024002 0.477 0.060001 0.73801 0.381 3.312 4.615 6.195 10.346 6.195 0.822 0 1.652-0.056 2.498-0.175l82.301-11.827c6.394-0.897 10.794-5.107 10.684-8.689 0-0.246-0.016006-0.48401-0.048004-0.699-0.401-3.336-4.643-6.219-10.361-6.219-0.812 0-1.646 0.064011-2.496 0.183z"/>
 </g>
 <g fill="#5f6062">
  <path d="m484.05 75.725l14.091 78.336-75.625 11.191s-9.103-5.64-14.742-36.988c-5.64-31.331 0.29401-38.865 0.29401-38.865l75.982-13.674z"/>
  <path d="m421.44 166.98c-0.67099-0.421-9.988-6.704-15.667-38.354-1.84-10.195-2.475-17.932-2.475-23.781 0-12.288 2.812-16.239 3.169-16.704l0.473-0.612 76.749-13.799 1.993-0.361 14.83 82.396-78.444 11.604-0.628-0.389zm-12.788-73.788c-0.61899 2.137-1.291 5.814-1.283 11.652-0.008026 5.548 0.60397 13.062 2.399 23.062 4.583 25.467 11.418 33.426 13.324 35.205l72.674-10.755-13.36-74.267-73.039 13.136c-0.19498 0.41399-0.453 1.049-0.715 1.967z"/>
 </g>
 <path d="m147.5 171.85s-1.708-1.406-8.9 1.707c-7.188 3.114-88.349 15.895-88.349 15.895s-5.123-0.676-6.2-2.248c-2.26-3.328-1.509-6.823-1.509-6.823s-8.241 8.324-0.25 12.971c7.971 4.639 94.362-10.294 94.362-10.294s4.369-1.096 6.903-3.073c2.533-1.971 3.943-8.135 3.943-8.135z" fill="#5f6062"/>
 <path d="m445.85 122.88c-2.629 0.39-4.983-0.774-5.254-2.605-0.27802-1.827 1.628-3.634 4.253-4.027l29.553-4.417c2.621-0.393 4.972 0.767 5.25 2.601 0.26999 1.831-1.637 3.634-4.27 4.02l-29.532 4.428z" fill="#5f6062"/>
 <path d="m442.46 104.08c-2.621 0.397-4.972-0.76701-5.246-2.597-0.27701-1.831 1.633-3.634 4.266-4.027l29.531-4.428c2.621-0.393 4.977 0.774 5.255 2.602 0.27802 1.839-1.637 3.638-4.258 4.035l-29.548 4.415z" fill="#5f6062"/>
 <path d="m449.65 144.04c-2.625 0.38101-4.979-0.778-5.254-2.605-0.27402-1.837 1.64-3.628 4.262-4.025l29.54-4.428c2.621-0.39299 4.976 0.778 5.246 2.605 0.27698 1.831-1.633 3.634-4.258 4.023l-29.536 4.43z" fill="#5f6062"/>
 <polygon points="54.395 102.58 55.336 98.625 392.02 179.06 391.08 183" fill="#5f6062"/>
 <g fill="#5f6062">
  <path d="m482.79 211.8c7.221 1.58 13.984-1.216 15.076-6.26 1.112-5.02-3.872-10.389-11.1-11.962l-81.213-17.744c-7.232-1.573-13.976 1.231-15.092 6.259-1.096 5.036 3.876 10.397 11.108 11.97l81.221 17.737z"/>
  <path d="m482.46 213.3l0.325-1.501 0.33-1.502c1.263 0.278 2.498 0.39699 3.693 0.39699 5.135 0 8.956-2.431 9.556-5.488 0.07901-0.342 0.11499-0.715 0.11499-1.097 0.091003-3.471-3.96-7.752-10.04-9.039l-81.213-17.744c-1.255-0.271-2.498-0.397-3.678-0.397-5.166 0-8.983 2.431-9.591 5.497-0.07901 0.357-0.11899 0.715-0.11899 1.072-0.095001 3.479 3.939 7.752 10.056 9.062l81.221 17.736-0.33 1.502-0.325 1.502-81.221-17.737c-7.021-1.572-12.375-6.386-12.466-12.064 0-0.604 0.059021-1.176 0.186-1.748 1.196-5.1 6.605-7.903 12.59-7.903 1.41 0 2.859 0.159 4.329 0.485l81.213 17.736c6.989 1.541 12.359 6.354 12.454 12.041 0 0.57201-0.050995 1.16-0.18298 1.756-1.184 5.107-6.589 7.903-12.554 7.903-1.409 0-2.87-0.15201-4.348-0.46901z"/>
 </g>
 <g fill="#5f6062">
  <path d="m62.008 61.024l-19.718 77.113 74.62 16.614s9.496-4.972 17.387-35.812c7.879-30.851 2.518-38.792 2.518-38.792l-74.807-19.123z"/>
  <path d="m39.792 139.66l20.242-79.135 0.492-1.972 77.531 19.817 0.441 0.638c0.274 0.417 2.125 3.485 2.125 11.915-0.007996 6.203-0.992 15.322-4.356 28.519-7.963 31.134-17.713 36.726-18.416 37.107l-0.663 0.342-77.396-17.231zm4.98-3.061l71.705 15.972c0.17901-0.144 0.39401-0.326 0.64401-0.56401 0.89-0.834 2.224-2.287 3.82-4.718 3.205-4.846 7.482-13.593 11.383-28.855 3.304-12.943 4.229-21.74 4.229-27.51 0-5.199-0.74699-7.917-1.172-9.041l-71.907-18.38-18.702 73.096zm16.736-73.602l0.5-1.972-0.5 1.972z"/>
 </g>
 <path d="m390.74 181.22s1.8-1.278 8.758 2.352c6.941 3.622 86.959 22.24 86.959 22.24s5.167-0.317 6.351-1.804c2.506-3.152 1.998-6.695 1.998-6.695s7.604 8.888-0.68802 12.947c-8.288 4.066-93.373-17.078-93.373-17.078s-4.281-1.405-6.66-3.558c-2.387-2.153-3.345-8.404-3.345-8.404z" fill="#5f6062"/>
 <g stroke="#010101">
  <line x1="75.821" x2="370.64" y1="24.941" y2="206.36" fill="none" stroke-width="4.067"/>
  <path d="m447.74 264.03c6.382 3.749 13.662 3.209 16.283-1.239 2.605-4.448-0.448-11.08-6.823-14.837l-71.649-42.186c-6.366-3.741-13.653-3.185-16.267 1.247-2.617 4.448 0.43298 11.089 6.814 14.838l71.642 42.177z" fill="#ef4135" stroke-width="3.072"/>
 </g>
 <path d="m369.28 207.02s2.104-0.675 7.609 4.917c5.5 5.576 75.982 47.785 75.982 47.785s5.012 1.286 6.596 0.229c3.356-2.224 3.952-5.759 3.952-5.759s4.516 10.795-4.619 12.113c-9.138 1.326-83.663-44.838-83.663-44.838s-3.642-2.645-5.246-5.425c-1.612-2.771-0.61099-9.022-0.61099-9.022z" fill="#010101"/>
 <g stroke="#010101">
  <g fill="none" stroke-width="4.067">
   <line x1="460.23" x2="163.83" y1="25.982" y2="204.78"/>
   <path d="m447.8 9.042l-37.098 22.885s-9.591 2.548 1.986 22.085c17.121 28.887 57.638-8.3 57.638-8.3"/>
  </g>
  <path d="m86.222 261.79c-6.41 3.702-13.686 3.082-16.267-1.382-2.565-4.472 0.54-11.08 6.942-14.773l72.015-41.558c6.402-3.693 13.693-3.066 16.263 1.39 2.578 4.479-0.528 11.089-6.938 14.782l-72.015 41.541z" fill="#ef4135" stroke-width="3.072"/>
 </g>
 <path d="m165.39 204.95s-2.113-0.675-7.646 4.877c-5.532 5.553-76.229 47.396-76.229 47.396s-5.023 1.263-6.588 0.198c-3.332-2.248-3.932-5.774-3.932-5.774s-4.575 10.771 4.555 12.137c9.126 1.374 83.897-44.409 83.897-44.409s3.658-2.629 5.282-5.401c1.629-2.772 0.661-9.024 0.661-9.024z" fill="#010101"/>
 <g stroke="#010101">
  <line x1="488.1" x2="146.48" y1="106.65" y2="162.54" fill="none" stroke-width="4.067"/>
  <path d="m53.259 186.63c-7.319 1.049-13.853-2.231-14.587-7.331-0.731-5.107 4.61-10.096 11.942-11.136l82.289-11.819c7.315-1.049 13.853 2.224 14.591 7.323 0.71899 5.107-4.619 10.096-11.938 11.136l-82.297 11.827z" fill="#ef4135" stroke-width="3.072"/>
  <path d="m483.83 66.646l14.091 78.335-75.625 11.192s-9.103-5.64-14.741-36.988c-5.641-31.331 0.293-38.865 0.293-38.865l75.982-13.674z" fill="#dcddde" stroke-width="4.067"/>
 </g>
 <path d="m147.28 162.77s-1.708-1.405-8.899 1.708c-7.188 3.113-88.35 15.894-88.35 15.894s-5.123-0.67499-6.2-2.248c-2.26-3.328-1.509-6.822-1.509-6.822s-8.24 8.324-0.25 12.971c7.971 4.639 94.362-10.294 94.362-10.294s4.369-1.097 6.902-3.074c2.535-1.97 3.944-8.135 3.944-8.135z" fill="#010101"/>
 <g fill="#010101">
  <path d="m445.63 113.8c-2.629 0.389-4.984-0.774-5.255-2.605-0.27701-1.827 1.629-3.634 4.254-4.027l29.552-4.416c2.621-0.394 4.973 0.76601 5.25 2.601 0.271 1.831-1.637 3.634-4.27 4.019l-29.531 4.428z"/>
  <path d="m442.24 94.999c-2.622 0.397-4.973-0.767-5.247-2.598-0.27698-1.831 1.633-3.634 4.266-4.027l29.532-4.428c2.621-0.391 4.976 0.776 5.254 2.603 0.27802 1.837-1.636 3.636-4.257 4.033l-29.548 4.417z"/>
  <path d="m449.43 134.96c-2.625 0.385-4.98-0.77501-5.255-2.605-0.27301-1.835 1.641-3.626 4.262-4.023l29.54-4.428c2.621-0.393 4.977 0.77801 5.246 2.605 0.27802 1.831-1.633 3.634-4.258 4.023l-29.535 4.428z"/>
 </g>
 <g stroke="#010101">
  <line x1="54.649" x2="391.34" y1="91.527" y2="171.96" fill="none" stroke-width="4.067"/>
  <path d="m482.57 202.72c7.22 1.581 13.983-1.216 15.075-6.259 1.112-5.021-3.872-10.39-11.1-11.963l-81.213-17.744c-7.232-1.572-13.976 1.231-15.092 6.259-1.096 5.036 3.877 10.397 11.108 11.971l81.222 17.736z" fill="#ef4135" stroke-width="3.072"/>
  <path d="m61.79 51.946l-19.718 77.112 74.62 16.615s9.496-4.971 17.387-35.813c7.88-30.852 2.518-38.791 2.518-38.791l-74.807-19.123z" fill="#dcddde" stroke-width="4.067"/>
 </g>
 <path d="m390.52 172.14s1.799-1.279 8.757 2.351c6.942 3.622 86.959 22.24 86.959 22.24s5.168-0.317 6.352-1.803c2.506-3.153 1.997-6.696 1.997-6.696s7.605 8.889-0.68701 12.947c-8.289 4.066-93.374-17.077-93.374-17.077s-4.281-1.406-6.66-3.559c-2.387-2.152-3.344-8.403-3.344-8.403z" fill="#010101"/>
 <path d="m316.49 241.53l11.228-110.98s64.91-4.035 57.777-43.609c-7.137-39.563-36.446-39.925-36.446-39.925s1.172-26.132-24.548-28.444c-25.724-2.311-49.254-9.114-58.051 8.022-8.082 15.731 0 0 0 0s-19.917-3.956-30.958-2.852-25.175 15.997-25.175 15.997-51.443-4.63-50.005 25.743c1.438 30.372 21.215 36.941 21.215 36.941s-10.933 18.181 5.568 23.861c16.498 5.671 22.928 6.251 22.928 6.251l10.254 102.73 96.213 6.269z" fill="#fff" stroke="#010101" stroke-width="3.382"/>
 <polygon points="306.9 214.68 232.44 203.98 232.99 209.59" fill="#010101"/>
</svg>
